HIERARCHY
ROOT locator2
{
  OFFSET 53.6172 30.1899 0.816905
  CHANNELS 6 Xposition Yposition Zposition Zrotation Xrotation Yrotation
  JOINT koshi
  {
    OFFSET 0 0 0
    CHANNELS 6 Xposition Yposition Zposition Zrotation Xrotation Yrotation
    JOINT sippo01
    {
      OFFSET 0 42.8363 -0.548134
      CHANNELS 6 Xposition Yposition Zposition Zrotation Xrotation Yrotation
      JOINT sippo02
      {
        OFFSET 0 44.0461 -3.28882
        CHANNELS 6 Xposition Yposition Zposition Zrotation Xrotation Yrotation
        JOINT sippo03
        {
          OFFSET 0 34.1929 -2.46662
          CHANNELS 6 Xposition Yposition Zposition Zrotation Xrotation Yrotation
          JOINT sippo04
          {
            OFFSET 0 30.0959 -1.75404
            CHANNELS 6 Xposition Yposition Zposition Zrotation Xrotation Yrotation
            JOINT sippo05
            {
              OFFSET 0 28.3637 -1.75404
              CHANNELS 6 Xposition Yposition Zposition Zrotation Xrotation Yrotation
              JOINT sippo06
              {
                OFFSET 0 31.6071 -3.2043
                CHANNELS 6 Xposition Yposition Zposition Zrotation Xrotation Yrotation
                End Site
                {
                  OFFSET 0 0 0
                }
              }
            }
          }
        }
      }
    }
    JOINT R_momo
    {
      OFFSET -27.891 13.5892 3.92723
      CHANNELS 6 Xposition Yposition Zposition Zrotation Xrotation Yrotation
      JOINT R_hiza
      {
        OFFSET 0 28.01 1.8232
        CHANNELS 6 Xposition Yposition Zposition Zrotation Xrotation Yrotation
        JOINT R_ashi
        {
          OFFSET 0 24.3992 -2.49174
          CHANNELS 6 Xposition Yposition Zposition Zrotation Xrotation Yrotation
          End Site
          {
            OFFSET 0 0 0
          }
        }
      }
    }
    JOINT L_momo
    {
      OFFSET 27.891 13.5892 3.92714
      CHANNELS 6 Xposition Yposition Zposition Zrotation Xrotation Yrotation
      JOINT L_hiza
      {
        OFFSET 0 28.0098 1.82319
        CHANNELS 6 Xposition Yposition Zposition Zrotation Xrotation Yrotation
        JOINT L_ashi
        {
          OFFSET 0 24.3992 -2.49171
          CHANNELS 6 Xposition Yposition Zposition Zrotation Xrotation Yrotation
          End Site
          {
            OFFSET 0 0 0
          }
        }
      }
    }
  }
  JOINT hara
  {
    OFFSET 0 2.15392 0
    CHANNELS 6 Xposition Yposition Zposition Zrotation Xrotation Yrotation
    JOINT mune
    {
      OFFSET 0 62.0609 0.472494
      CHANNELS 6 Xposition Yposition Zposition Zrotation Xrotation Yrotation
      JOINT R_kata
      {
        OFFSET 22.6695 9.65301 -5.3622
        CHANNELS 6 Xposition Yposition Zposition Zrotation Xrotation Yrotation
        JOINT R_hiji
        {
          OFFSET 0 25.813 1.69098
          CHANNELS 6 Xposition Yposition Zposition Zrotation Xrotation Yrotation
          JOINT R_te
          {
            OFFSET 0 28.5636 -0.966307
            CHANNELS 6 Xposition Yposition Zposition Zrotation Xrotation Yrotation
            End Site
            {
              OFFSET 0 0 0
            }
          }
        }
      }
      JOINT L_kata
      {
        OFFSET -22.6695 9.65298 -5.3622
        CHANNELS 6 Xposition Yposition Zposition Zrotation Xrotation Yrotation
        JOINT L_hiji
        {
          OFFSET 0 25.813 1.69102
          CHANNELS 6 Xposition Yposition Zposition Zrotation Xrotation Yrotation
          JOINT L_te
          {
            OFFSET 0 28.5636 -0.966295
            CHANNELS 6 Xposition Yposition Zposition Zrotation Xrotation Yrotation
            End Site
            {
              OFFSET 0 0 0
            }
          }
        }
      }
      JOINT kubi
      {
        OFFSET 0 23.1438 -0.944988
        CHANNELS 6 Xposition Yposition Zposition Zrotation Xrotation Yrotation
        JOINT atama
        {
          OFFSET 0 20.8625 4.12737
          CHANNELS 6 Xposition Yposition Zposition Zrotation Xrotation Yrotation
          JOINT ago
          {
            OFFSET 0 7.552 -7.58201
            CHANNELS 6 Xposition Yposition Zposition Zrotation Xrotation Yrotation
            End Site
            {
              OFFSET 0 0 0
            }
          }
        }
      }
    }
  }
}
MOTION
Frames:	8
Frame Time:	0.0333333
-0.00270292 30.0531 0.00331829 -90 -3.50835e-015 -90 0 0 0 -171.518 3.11942 0.330076 -2.83122e-007 42.8363 -0.548134 2.96323 -15.9214 3.73644 4.76837e-007 44.0461 -3.28883 5.39834 9.404 -5.26424 -2.86102e-006 34.1929 -2.46661 6.42403 1.06902 -1.6941 1.90735e-006 30.0959 -1.75404 6.02124 9.41064 -0.737042 -1.14441e-005 28.3637 -1.75404 9.46287 -5.79787 5.77085 7.62939e-006 31.6072 -3.2043 5.23309 -6.13343 -5.40628 -27.891 13.5892 3.92724 114.892 -28.9746 -53.4413 7.62939e-006 28.01 1.8232 2.68748 -76.0415 -3.76976 3.8147e-006 24.3992 -2.49173 -146.793 62.5285 -166.046 27.891 13.5892 3.92714 -106.742 -27.3864 60.7726 -7.62939e-006 28.0098 1.82319 -0.76988 -60.406 3.0341 -3.8147e-006 24.3992 -2.49172 134.903 73.7922 172.178 6.07921e-007 2.15392 3.55271e-015 -0.887661 -3.18214 0.234508 -2.68221e-007 62.0609 0.472496 -1.08892e-009 1.0047e-005 1.39602e-007 22.6695 9.653 -5.36221 -133.559 29.854 31.1283 -1.52588e-005 25.813 1.69098 -179.748 -62.2716 -176.312 7.6294e-006 28.5636 -0.966308 49.6387 8.63675 -78.3069 -22.6695 9.65299 -5.3622 132.482 -10.639 -57.1198 7.6294e-006 25.813 1.69102 -179.629 -77.3865 -177.246 0 28.5636 -0.966293 -40.9058 32.2004 110.645 1.93715e-007 23.1438 -0.944992 0.281964 -1.85459 -0.248777 1.19209e-007 20.8625 4.12737 0.22761 -1.87186 -0.241808 -5.96046e-008 7.55202 -7.58202 -4.91279e-007 2.83275 1.00174e-005 
-3.1288 29.7352 -0.072519 -90 -3.50835e-015 -90 0 0 0 -171.491 1.79396 -0.769579 -2.83122e-007 42.8363 -0.548134 2.64326 -12.6469 3.77644 5.68127e-007 44.0461 -3.28883 4.89876 9.93735 -5.03176 -2.56236e-006 34.1929 -2.46661 5.9149 1.36455 -1.95122 2.28836e-006 30.0959 -1.75404 5.19518 9.58878 -1.12811 -1.08536e-005 28.3637 -1.75404 8.91988 -5.34214 5.67945 8.1937e-006 31.6072 -3.2043 4.85368 -5.56215 -5.99026 -27.891 13.5892 3.92724 119.74 -25.3347 -52.9058 7.42459e-006 28.01 1.8232 3.12676 -79.0837 -1.43308 4.15009e-006 24.3992 -2.49173 -144.918 65.8187 -167.21 27.891 13.5892 3.92714 -113.564 -28.2156 59.248 -7.84468e-006 28.0098 1.82319 -0.595426 -64.583 -0.85088 -3.89648e-006 24.3992 -2.49172 132.049 75.6496 173.894 6.07921e-007 2.15392 -3.55271e-015 -1.09081 7.1113 -0.883056 -2.68221e-007 62.0609 0.472496 -5.53418e-006 1.00469e-005 1.00341e-005 22.6695 9.653 -5.36221 -128.486 -2.44205 16.9218 -1.72978e-005 25.813 1.69098 -179.424 -82.2019 178.106 8.83567e-006 28.5636 -0.966309 61.7134 7.94446 -102.41 -22.6695 9.65299 -5.3622 131.376 -28.2826 -47.1481 8.3876e-006 25.813 1.69103 -0.653702 -81.4321 5.04574 1.03801e-006 28.5636 -0.966291 -48.5162 19.9259 120.416 1.93716e-007 23.1438 -0.944992 5.82938 -14.0067 1.16568 -1.49906e-006 20.8625 4.12736 5.40991 -14.2459 0.30127 -6.37056e-007 7.55202 -7.58201 -1.22075e-006 4.98842 2.49569e-007 
-6.32143 28.1997 -0.146884 -90 -3.50835e-015 -90 0 0 0 -171.46 0.495115 -1.84619 -2.83122e-007 42.8363 -0.548134 2.34533 -9.434 3.85081 6.57844e-007 44.0461 -3.28883 4.40845 10.4596 -4.7951 -2.26807e-006 34.1929 -2.46661 5.41607 1.6548 -2.1982 2.67051e-006 30.0959 -1.75404 4.38486 9.76177 -1.50688 -1.02488e-005 28.3637 -1.75404 8.37541 -3.866 5.44625 8.82839e-006 31.6072 -3.2043 4.4828 -5.00098 -6.55573 -27.891 13.5892 3.92724 125.165 -20.5499 -53.792 6.96992e-006 28.01 1.8232 4.43512 -83.0132 1.53897 4.52985e-006 24.3992 -2.49173 -141.859 69.231 -168.504 27.891 13.5892 3.92714 -120.456 -27.9743 58.3296 -7.77194e-006 28.0098 1.82319 -0.390397 -69.3757 -2.8006 -4.07782e-006 24.3992 -2.49172 128.399 77.4265 176.403 6.07921e-007 2.15392 -3.55271e-015 -1.31821 15.2381 -1.76832 -2.68221e-007 62.0609 0.472496 -1.0019e-005 1.00469e-005 2.08166e-008 22.6695 9.653 -5.36221 -128.924 -28.0978 10.2953 -1.67029e-005 25.813 1.69098 -0.0803782 -69.6234 -3.93795 7.55672e-006 28.5636 -0.96631 63.6808 3.36443 -105.184 -22.6695 9.65299 -5.3622 128.361 -40.9445 -41.3114 8.42914e-006 25.813 1.69103 -0.22856 -59.9684 5.73608 1.73205e-006 28.5636 -0.96629 -54.9857 13.3675 121.57 1.93716e-007 23.1438 -0.944992 10.2332 -21.1252 3.77246 -2.52133e-006 20.8625 4.12737 10.0808 -21.3007 2.1894 -5.31083e-007 7.55202 -7.58201 -8.79744e-009 3.28928 2.19445e-007 
-9.54567 26.649 -0.221985 -90 -3.50835e-015 -90 0 0 0 -171.424 -0.816771 -2.93238 -2.83122e-007 42.8363 -0.548134 2.05761 -6.18786 3.95968 7.48434e-007 44.0461 -3.28883 3.91066 10.9883 -4.54621 -1.96901e-006 34.1929 -2.46661 4.91146 1.94862 -2.44282 3.06491e-006 30.0959 -1.75404 3.56388 9.9353 -1.88502 -9.61449e-006 28.3637 -1.75404 7.83406 -2.37128 5.23929 9.52945e-006 31.6072 -3.2043 4.10833 -4.43209 -7.12068 -27.891 13.5892 3.92724 128.316 -13.0793 -49.6846 6.5807e-006 28.01 1.8232 9.19847 -86.9684 3.29938 4.59656e-006 24.3992 -2.49173 -139.982 73.2175 -171.494 27.891 13.5892 3.92714 -127.063 -26.2475 57.997 -7.42259e-006 28.0098 1.82319 -0.0592474 -74.2157 -4.63559 -4.25494e-006 24.3992 -2.49172 121.492 79.39 -177.834 6.07921e-007 2.15392 -3.55271e-015 -1.55878 20.0085 -1.48919 -2.68221e-007 62.0609 0.472496 -1.09135e-009 1.0047e-005 1.61516e-008 22.6695 9.653 -5.36221 -128.399 -39.1259 10.9669 -1.56875e-005 25.813 1.69098 0.0286214 -54.3076 -4.17627 6.53093e-006 28.5636 -0.96631 60.8753 0.73009 -104.966 -22.6695 9.65299 -5.3622 120.972 -51.1506 -42.2446 7.87875e-006 25.813 1.69103 -0.171682 -40.2075 6.06328 2.42453e-006 28.5636 -0.96629 -57.6731 10.2547 118.436 1.93715e-007 23.1438 -0.944992 11.7483 -17.8935 0.0137392 -3.29932e-006 20.8625 4.12736 13.7507 -15.6705 4.47425 -8.17431e-007 7.55202 -7.58201 9.10262e-008 -17.59 2.88663e-007 
-11.8894 25.0829 -0.297822 -90 -3.50835e-015 -90 0 0 0 -171.384 -2.14142 -4.01827 -2.83122e-007 42.8363 -0.548134 1.77749 -2.9087 4.10243 8.39872e-007 44.0461 -3.28883 3.41688 12.3554 -4.33596 -1.6299e-006 34.1929 -2.46661 4.40302 2.2448 -2.68414 3.51608e-006 30.0959 -1.75404 2.73444 10.1087 -2.26189 -8.89968e-006 28.3637 -1.75403 7.29387 -0.857653 5.05905 1.03467e-005 31.6072 -3.2043 3.73115 -3.58464 -7.69981 -27.891 13.5892 3.92724 130.049 -4.52114 -45.508 6.12688e-006 28.01 1.82319 67.0543 -89.0587 58.0933 4.76183e-006 24.3992 -2.49173 -136.725 77.2097 -178.181 27.891 13.5892 3.92714 -132.521 -25.2484 55.0049 -7.21762e-006 28.0098 1.82319 0.486261 -77.3331 -6.25128 -4.3271e-006 24.3992 -2.49172 110.627 80.7411 -168.169 6.07921e-007 2.15392 3.55271e-015 -2.1769 19.8992 -0.249823 -2.68221e-007 62.0609 0.472496 -1.08884e-009 1.0047e-005 1.61646e-008 22.6695 9.653 -5.36221 -126.068 -36.1403 15.1668 -1.58026e-005 25.813 1.69098 0.136402 -62.5909 -4.8198 7.86865e-006 28.5636 -0.966309 57.5064 4.34952 -109.888 -22.6695 9.65299 -5.3622 116.888 -51.5349 -44.0296 7.86529e-006 25.813 1.69103 -0.197491 -41.4673 6.02205 1.71233e-006 28.5636 -0.96629 -56.602 14.1472 119.399 1.93715e-007 23.1438 -0.944992 8.37557 -11.4691 -4.11664 -2.57663e-006 20.8625 4.12736 10.735 -8.78497 1.70521 -1.07642e-006 7.55202 -7.58201 -1.06019e-005 -25.2995 -3.62377e-006 
-12.7277 23.5216 -0.372186 -90 -3.50835e-015 -90 0 0 0 -171.339 -3.43998 -4.16305 -2.83122e-007 42.8363 -0.548134 1.50977 0.330361 4.27238 9.29662e-007 44.0461 -3.28883 2.92999 13.6961 -4.10695 -1.29714e-006 34.1929 -2.46661 3.90272 2.53655 -2.91639 3.9649e-006 30.0959 -1.75404 1.92193 10.2766 -2.62587 -8.18725e-006 28.3637 -1.75403 6.76978 0.629893 4.90965 1.11907e-005 31.6072 -3.2043 3.36217 -2.75155 -8.2579 -27.891 13.5892 3.92724 129.566 3.49608 -42.2755 5.61262e-006 28.01 1.82319 150.724 -87.4686 136.856 4.88101e-006 24.3992 -2.49173 -137.779 79.853 178.653 27.891 13.5892 3.92714 -134.285 -25.549 56.2811 -7.0126e-006 28.0098 1.82319 1.35716 -80.3879 -5.7926 -4.29898e-006 24.3992 -2.49172 109.001 81.2228 -167.87 6.07921e-007 2.15392 0 -2.57088 19.1384 1.58819 -2.68221e-007 62.0609 0.472496 -1.09254e-009 1.00469e-005 1.00341e-005 22.6695 9.653 -5.36221 -125.769 -30.8222 19.9998 -1.60634e-005 25.813 1.69098 0.340155 -71.867 -5.34613 8.84114e-006 28.5636 -0.966309 54.2433 6.71548 -113.753 -22.6695 9.65299 -5.3622 116.095 -50.9495 -43.4034 7.9626e-006 25.813 1.69103 -0.240434 -46.8204 5.95714 6.82869e-007 28.5636 -0.966291 -56.064 18.376 121.445 1.93715e-007 23.1438 -0.944992 5.75831 -5.95351 -5.19696 -1.76649e-006 20.8625 4.12736 8.61242 -3.70316 -1.41593 -1.07929e-006 7.55202 -7.58201 -1.0211e-005 1.11664 1.02023e-005 
-13.5743 23.0905 -0.447287 -90 -3.50835e-015 -90 0 0 0 -171.289 -4.75196 -4.30675 -2.83122e-007 42.8363 -0.548134 1.2442 3.60221 4.47457 1.02031e-006 44.0461 -3.28883 2.43453 15.0498 -3.85177 -9.61784e-007 34.1929 -2.46661 3.39757 2.83123 -3.14567 4.4216e-006 30.0959 -1.75404 1.09889 10.5379 -2.99112 -7.46143e-006 28.3637 -1.75403 6.24469 2.13606 4.78645 1.20719e-005 31.6072 -3.2043 2.99126 -1.9103 -8.80989 -27.891 13.5892 3.92724 128.923 9.31486 -41.5595 5.06335e-006 28.01 1.82319 161.421 -84.9282 144.587 4.92734e-006 24.3992 -2.49173 -131.499 81.4369 169.401 27.891 13.5892 3.92714 -136.079 -25.8134 57.5667 -6.7825e-006 28.0098 1.82319 2.3257 -81.3951 -5.23974 -4.4234e-006 24.3992 -2.49172 107.165 81.7014 -167.377 6.07921e-007 2.15392 -3.55271e-015 -2.56651 18.8522 3.60407 -2.68221e-007 62.0609 0.472496 -1.0019e-005 1.00471e-005 9.95136e-007 22.6695 9.653 -5.36221 -128.621 -27.5471 24.6662 -1.6077e-005 25.813 1.69098 0.696881 -77.531 -5.72391 8.9644e-006 28.5636 -0.966308 50.3348 6.2699 -116.871 -22.6695 9.65299 -5.3622 116.529 -52.5959 -42.4702 7.84224e-006 25.813 1.69103 -0.270617 -47.9488 5.91075 2.72515e-007 28.5636 -0.966291 -56.4537 19.5777 122.704 1.93716e-007 23.1438 -0.944992 3.78569 -5.73498 -5.26349 -1.17075e-006 20.8625 4.12736 6.91768 -4.21398 -2.56418 -7.50831e-007 7.55202 -7.58201 -1.10083e-005 5.41927 1.10004e-005 
-12.8423 22.6553 -0.523124 -90 -3.50835e-015 -90 0 0 0 -171.25 -5.05217 -4.60653 -2.83122e-007 42.8363 -0.548134 0.977139 6.28139 4.72011 1.11178e-006 44.0461 -3.28883 1.92879 16.4178 -3.56905 -6.24488e-007 34.1929 -2.46661 2.3486 3.34718 -3.35087 5.00951e-006 30.0959 -1.75404 0.266116 10.7999 -3.35229 -6.62125e-006 28.3637 -1.75403 5.71356 3.64124 4.69197 1.30908e-005 31.6072 -3.2043 2.61735 -1.05998 -9.35641 -27.891 13.5892 3.92724 128.365 12.3312 -44.2567 4.4659e-006 28.01 1.82319 161.754 -83.6255 141.939 5.04448e-006 24.3992 -2.49173 -122.636 82.8663 159.563 27.891 13.5892 3.92714 -137.885 -26.049 58.8827 -6.52999e-006 28.0098 1.82319 3.56281 -82.4094 -3.28408 -4.60085e-006 24.3992 -2.49172 105.059 82.1632 -166.63 6.07921e-007 2.15392 0 -2.56161 18.6587 5.54836 -2.68221e-007 62.0609 0.472496 -1.0019e-005 1.0047e-005 1.00341e-005 22.6695 9.653 -5.36221 -131.034 -24.0907 28.9662 -1.59061e-005 25.813 1.69098 1.35314 -81.6823 -5.45802 8.67495e-006 28.5636 -0.966308 46.3771 5.20143 -118.876 -22.6695 9.65299 -5.3622 116.98 -54.2536 -41.503 7.70817e-006 25.813 1.69103 -0.299111 -48.5465 5.86647 -6.71029e-008 28.5636 -0.966291 -56.4313 19.9689 122.684 1.93716e-007 23.1438 -0.944992 2.246 -6.19711 -5.08283 -7.02357e-007 20.8625 4.12736 5.32619 -5.4593 -2.71781 -4.54111e-007 7.55202 -7.58201 -7.91294e-008 5.29991 8.97684e-007 
